<svg xmlns="http://www.w3.org/2000/svg" viewBox="0 0 160 95">
<!-- SVG created with Arrow, by QuiverAI (https://quiver.ai) -->
  <style type="text/css">.cls-0 {fill:#07080A;}
.cls-1 {fill:#A4E540;enable-background:new    ;}
.cls-2 {fill:#060709;}</style>
  <path class="cls-1" d="m152 42-0.6-24.4-9.3-6.9-30.8-2.8 0.1 6.4-6.3-4.2-29.6-2 0.1 6.5-5.2-4-22.2 3.1 0.2-6c-10.7 0.3-40.9 2.4-40.9 2.4l0.8 21.5 8.7-0.7 0.9 53.5 21.3 2.3 0.4-9.9 8.1 7.7 16.8 2.8 42.2-3.9 4.8-3.9v7.9l31.8-4.3 8.4-7.7c0.1-6.1 0.7-23.4 0.7-28.8v-4.6z"/>
  <path class="cls-2" d="m11.9 14.4 0.2 12.3 9.9-0.4 0.1 29.7-0.3 24.2 12.6 0.3-0.7-29.5 0.1-24.9 9.9-0.1 0.1-11.9-31.9 0.3z"/>
  <path class="cls-2" d="m67.8 16.6c-4-1-9-1.4-13.4 0-8.5 2.4-10.2 10-10.2 32.4s1.9 30.5 10.2 32.5c3.8 1.2 11.9 2 16.5-1.5 5.1-3.4 6-10.7 6-28.6 0-18.4-0.5-32.5-9.1-34.8zm-7 54c-3.2 0-4.6-1.2-4.6-20.6 0-18.9 0.6-22.6 4.6-22.6 3.7 0 4.8 2 4.8 22.5-0.1 17.8-0.4 20.7-4.8 20.7z"/>
  <path class="cls-2" d="m97.4 14.2c-6-0.3-17.2-0.2-17.2-0.2l0.2 31.6-0.2 34.7 9.8-0.3c8.5-0.3 22.1 3.1 22.8-18 0.6-13.6 0.6-28-1.1-36.5-1.8-7.2-5.7-11-14.3-11.3zm2.5 50.2c-0.6 3.3-2.8 3.2-7.6 3.5l-0.2-41.8c6.1-0.4 7.7 0.1 8 5.2 1 8 0.7 29.6-0.2 33.1z"/>
  <path class="cls-2" d="m133.9 14.3c-4.2-0.3-17.8-0.3-17.8-0.3l0.3 39.6-0.3 26.8 9.4-0.4c8.9-0.3 21.1 2.6 22.6-15.7 0.9-8.1 0.9-18.9 0.3-28.2-0.6-13.4-3.4-21.1-14.5-21.8zm3 46.6c-0.5 7.1-2 6.8-8.9 7v-41.8c6.2-0.3 8.4-0.5 9.2 5.8 0.4 5.1 0.4 21.2-0.3 29z"/>
</svg>