<svg xmlns="http://www.w3.org/2000/svg" viewBox="0 0 198.6 89">
<!-- SVG created with Arrow, by QuiverAI (https://quiver.ai) -->
  <style type="text/css">.cls-0 {fill:#0C0C0D;}
.cls-1 {fill:#A5FB2F;}
.cls-2 {fill:#75AD34;}</style>
  <polygon class="cls-1" points="9.1 29.7 9.1 39.2 18.2 39.2 18.2 29.7 18.2 29.6 13.6 29.6 13.6 19.9 28 19.9 28 29.7 28 39.3 32.9 39.3 32.9 43.9 37.5 43.9 37.5 29.6 44.3 29.6 51.8 29.6 51.8 19.9 32.9 19.9 32.9 24.6 37.5 24.6 37.5 29.6 28 29.7 28 49.8 18.4 49.8 18.4 40.4 9.1 40.4"/>
  <rect class="cls-1" x="28" y="49.9" width="9.3" height="18.7"/>
  <rect class="cls-1" x="45.8" y="39.7" width="9.4" height="9.3"/>
  <polyline class="cls-1" points="55.6 50.1 55.6 59.2 65.3 59.2 65.3 68.6 84.6 68.6 84.6 59.2 84.6 49.9 93.9 49.9 93.9 29.7 84.6 29.7 84.6 19.9 65.3 19.9 65.3 29.7 65.3 39.3 55.6 39.3 55.6 29.7 65.2 29.7 65.2 49.9"/>
  <path class="cls-1" d="m100.6 19.9v29.5h9.2v-19.7h19.2v-9.8h-28.4zm9.2 30-9.3-0.1 0.1 18.7h28.5v-9.3h-19.1l-0.2-9.3z"/>
  <polygon class="cls-1" points="145.5 19.9 145.5 49.1 155.2 49.2 155.2 29.7 175.1 29.7 175.1 29.7 184.1 29.7 184.1 39.3 175.2 39.3 175.2 29.7 175.1 40 175.1 39.3 179.9 39.3 179.9 49.3 189.4 49.3 189.4 39.7 179.9 39.7 179.9 49.3 175.1 49.3 175.1 59.2 184.1 59.2 184.1 49.9 174.9 49.9 174.9 68.6 145.6 68.6 145.6 49.9 155.2 50 155.2 59.2 175 59.2 175 59.2 174.9 59.2 174.9 59.2 174.9 59.2 174.9 59.2 174.9 59.2 174.9 59.1 174.9 59.1 174.9 59.1 174.9 59.1 174.9 59.1 174.9 59.2 169.6 59.2"/>
  <rect class="cls-1" x="134.3" y="9" width="9.2" height="9.8"/>
  <rect class="cls-1" x="134.3" y="69.3" width="9.2" height="9.6"/>
  <rect class="cls-1" x="134.3" y="39.7" width="9.2" height="9.4"/>
  <rect class="cls-1" x="129" y="29.7" width="9.3" height="9.3"/>
  <rect class="cls-1" x="129" y="49.9" width="9.3" height="9.3"/>
  <rect class="cls-1" x="84.6" y="50.1" width="9.3" height="9.2"/>
  <rect class="cls-1" x="37.5" y="20" width="9.5" height="9.6"/>
  <rect class="cls-2" x="93.9" y="34.5" width="4.6" height="4.4"/>
  <rect class="cls-2" x="32.9" y="20" width="4.6" height="4.4"/>
  <rect class="cls-2" x="47.5" y="20" width="4.3" height="9.6"/>
  <rect class="cls-2" x="13.7" y="20" width="4.7" height="9.6"/>
  <rect class="cls-2" x="32.9" y="39.3" width="4.6" height="4.4"/>
  <rect class="cls-2" x="60.5" y="39.3" width="4.6" height="9.4"/>
</svg>